<?xml version="1.0" standalone="no"?>
<!DOCTYPE svg PUBLIC "-//W3C//DTD SVG 20010904//EN"
 "http://www.w3.org/TR/2001/REC-SVG-20010904/DTD/svg10.dtd">
<svg version="1.0" xmlns="http://www.w3.org/2000/svg"
 width="500.000000pt" height="500.000000pt" viewBox="0 0 500.000000 500.000000"
 preserveAspectRatio="xMidYMid meet">

<g transform="translate(0.000000,500.000000) scale(0.100000,-0.100000)"
fill="#000000" stroke="none">
<path d="M2242 4252 c-128 -52 -212 -180 -198 -304 8 -79 8 -79 24 -73 12 4
12 3 3 -9 -10 -12 -10 -20 0 -38 43 -82 127 -147 216 -168 64 -14 157 -5 149
15 -2 7 1 16 9 19 9 3 12 0 8 -10 -3 -7 0 -14 6 -14 6 0 11 4 11 9 0 5 12 12
27 16 34 8 105 80 134 136 15 30 24 68 27 119 4 64 1 83 -21 132 -29 65 -94
134 -152 163 -56 27 -185 31 -243 7z m-101 -109 c13 -16 12 -17 -3 -4 -10 7
-18 15 -18 17 0 8 8 3 21 -13z m436 -315 c-3 -8 -6 -5 -6 6 -1 11 2 17 5 13 3
-3 4 -12 1 -19z m-6 -51 c-10 -9 -11 -8 -5 6 3 10 9 15 12 12 3 -3 0 -11 -7
-18z m-51 -27 c0 -5 -8 -10 -17 -10 -15 0 -16 2 -3 10 19 12 20 12 20 0z m-35
-40 c3 -5 1 -10 -4 -10 -6 0 -11 5 -11 10 0 6 2 10 4 10 3 0 8 -4 11 -10z
m-239 -9 c-4 -5 -1 -12 4 -14 6 -3 5 -4 -2 -3 -15 3 -23 26 -8 26 6 0 9 -4 6
-9z m78 -10 c3 -4 -6 -6 -19 -3 -14 2 -25 6 -25 8 0 8 39 4 44 -5z m43 -7 c-3
-3 -12 -4 -19 -1 -8 3 -5 6 6 6 11 1 17 -2 13 -5z"/>
<path d="M3485 3273 c-11 -2 -27 -7 -35 -10 -8 -3 -21 -7 -29 -9 -15 -3 -19
-7 -186 -167 l-110 -105 0 -109 c1 -74 7 -127 19 -167 20 -67 64 -159 92 -194
l19 -23 139 140 c100 102 136 145 132 157 -6 15 -4 15 11 3 10 -7 15 -10 11
-5 -6 7 33 50 72 80 8 6 21 18 27 27 10 13 10 16 -2 16 -8 0 -12 -4 -10 -8 7
-10 -21 -30 -30 -21 -5 4 -5 1 -1 -5 4 -8 1 -13 -7 -13 -8 0 -20 14 -27 30 -7
17 -19 30 -26 30 -10 0 -14 13 -14 40 0 22 -4 40 -10 40 -5 0 -10 6 -10 13 0
8 -9 40 -19 73 -11 32 -21 82 -22 109 -2 28 -8 54 -13 58 -6 5 5 6 24 3 22 -4
43 -1 54 7 16 12 15 13 -6 13 -13 1 -32 -1 -43 -3z m-43 -45 c-5 -20 -15 -17
-18 6 -1 7 4 13 11 13 7 0 10 -8 7 -19z m-34 -20 c-2 -6 -14 -12 -26 -13 -11
-1 -19 2 -16 7 4 5 12 7 20 4 8 -3 14 -1 14 4 0 6 3 10 6 10 3 0 4 -5 2 -12z
m1 -38 c-6 -5 -18 -6 -26 -3 -19 8 -16 11 13 11 17 0 22 -3 13 -8z m150 -347
c-6 -7 -17 -13 -23 -12 -7 0 -6 2 2 6 6 2 10 8 8 12 -3 4 1 8 9 8 11 0 12 -4
4 -14z"/>
<path d="M3577 3259 c7 -7 15 -10 18 -7 3 3 -2 9 -12 12 -14 6 -15 5 -6 -5z"/>
<path d="M3614 3245 c1 -8 8 -21 16 -28 12 -10 12 -9 2 4 -6 9 -9 18 -6 21 3
3 1 9 -4 12 -6 3 -9 -1 -8 -9z"/>
<path d="M3655 3221 c4 -8 2 -17 -6 -23 -10 -6 -6 -7 11 -3 24 6 24 5 6 -9
-11 -9 -15 -16 -9 -16 6 0 16 6 22 13 8 11 6 18 -11 33 -12 10 -18 13 -13 5z"/>
<path d="M2170 3141 c0 -13 -38 -32 -120 -61 -64 -22 -118 -44 -194 -81 -43
-20 -60 -25 -36 -9 8 5 10 10 4 10 -6 0 -17 -6 -23 -14 -30 -36 141 -30 259 8
66 22 170 80 170 95 0 14 -37 41 -45 34 -4 -5 -5 -3 -1 4 3 6 2 14 -4 18 -5 3
-10 2 -10 -4z"/>
<path d="M3706 3135 c4 -8 8 -15 10 -15 2 0 4 7 4 15 0 8 -4 15 -10 15 -5 0
-7 -7 -4 -15z"/>
<path d="M3606 2907 c3 -10 9 -15 12 -12 3 3 0 11 -7 18 -10 9 -11 8 -5 -6z"/>
<path d="M1437 1872 c-161 -161 -196 -202 -190 -218 6 -17 5 -17 -10 -5 -15
12 -17 11 -17 -3 0 -10 5 -14 10 -11 6 3 11 -4 11 -17 1 -20 2 -21 6 -3 3 11
10 26 15 32 6 7 7 21 4 30 -5 13 -4 15 4 7 6 -6 14 -38 16 -70 4 -40 2 -54 -4
-45 -16 22 -23 -17 -12 -64 13 -56 12 -65 -6 -65 -13 0 -15 -6 -9 -27 4 -16 4
-25 0 -21 -4 3 -15 -1 -24 -10 -19 -18 -10 -42 16 -42 8 0 11 -5 7 -12 -4 -7
-3 -9 1 -5 17 15 13 36 -5 32 -13 -3 -17 1 -13 11 12 31 44 7 38 -29 -4 -22
-2 -27 14 -27 11 0 23 -4 26 -10 7 -11 87 -13 122 -4 13 4 20 11 16 17 -3 6
-1 7 6 3 16 -10 82 35 76 52 -3 7 -1 11 4 7 5 -3 58 41 117 99 l108 103 4 92
c5 99 -12 192 -50 279 -24 53 -67 122 -77 122 -4 0 -95 -89 -204 -198z m-81
-136 c2 -14 -20 -16 -33 -2 -4 4 -1 6 7 4 9 -2 14 3 12 12 -2 8 0 11 4 7 4 -4
9 -14 10 -21z"/>
<path d="M2860 1581 c-73 -22 -162 -66 -185 -91 -18 -20 -18 -21 16 -50 34
-29 79 -40 79 -19 0 6 7 9 15 5 8 -3 15 -1 15 4 0 6 8 10 18 10 10 0 27 7 38
15 12 8 24 12 27 9 3 -3 18 1 34 9 16 9 58 25 93 36 36 12 73 26 82 31 10 6
26 10 37 10 10 0 24 7 31 15 10 12 8 16 -15 25 -41 16 -222 10 -285 -9z"/>
<path d="M1164 1536 c-3 -13 -1 -33 5 -44 6 -11 8 -22 5 -24 -2 -3 3 -11 12
-19 15 -12 15 -10 0 26 -10 22 -14 50 -11 62 3 13 3 23 0 23 -2 0 -7 -11 -11
-24z"/>
<path d="M1192 1498 c2 -12 11 -24 21 -26 24 -5 22 25 -4 38 -18 10 -20 9 -17
-12z"/>
<path d="M1185 1413 c16 -34 29 -41 40 -23 4 6 2 9 -3 8 -5 -2 -19 8 -31 22
l-22 25 16 -32z"/>
<path d="M2413 886 c-61 -29 -124 -89 -154 -148 -19 -35 -23 -60 -23 -133 0
-78 3 -97 26 -141 36 -68 113 -136 178 -157 178 -57 353 37 405 217 40 137
-32 290 -167 359 -75 37 -188 39 -265 3z"/>
</g>
</svg>
